<svg width="28" height="28" fill="none" xmlns="http://www.w3.org/2000/svg">
    <path d="M24.78 28H3.22A3.22 3.22 0 0 1 0 24.78V3.22A3.22 3.22 0 0 1 3.22 0h21.56A3.22 3.22 0 0 1 28 3.22v21.56A3.22 3.22 0 0 1 24.78 28z" fill="#000"/>
    <path d="M14.041 6.623c.462 0 1.96-.294 3.122-1.988.994-1.47.882-3.108.882-3.108s-1.722-.126-3.234 1.75C13.72 4.65 13.803 6.61 13.803 6.61s.084.014.238.014z" fill="#fff"/>
    <path d="M22.68 17.389c.084-.238.14-.378.14-.378h-.014s-.014 0-.028-.014a2.934 2.934 0 0 1-.532-.266 4.737 4.737 0 0 1-1.708-1.722c-.322-.56-.546-1.26-.602-2.128a4.404 4.404 0 0 1 .098-1.232v-.014c.028-.126.056-.238.098-.364.448-1.456 1.498-2.408 1.918-2.73l.168-.126s-1.344-2.086-3.878-2.086c-2.184 0-2.996.98-4.158.98-1.428 0-1.652-.91-3.766-.91-1.092 0-2.618.42-3.752 1.89-.896 1.148-1.232 2.506-1.372 3.5A9.62 9.62 0 0 0 5.264 14c0 .056.014.112.014.182.084.812.294 1.68.588 2.548 0 .014.014.042.028.056.028.098.07.21.112.308.014.042.042.098.056.14.014.042.028.098.056.14.28.728.602 1.428.98 2.086 1.092 1.932 2.506 3.388 3.836 3.388 1.512 0 1.988-.98 3.5-.966 1.918.014 2.45 1.232 4.06.91 1.078-.21 2.366-1.736 3.192-3.192.028-.056.056-.098.084-.14.392-.84.728-1.624.91-2.072z" fill="#fff"/>
</svg>
